<svg width="48" height="48" viewBox="0 0 48 48" fill="none" xmlns="http://www.w3.org/2000/svg">
<g clip-path="url(#clip0_42_109)">
<rect width="48" height="48" fill="white"/>
<path d="M1.5 15C1.5 11.4101 4.41015 8.5 8 8.5H40C43.5899 8.5 46.5 11.4101 46.5 15V27C46.5 30.5899 43.5899 33.5 40 33.5H8C4.41015 33.5 1.5 30.5898 1.5 27V15Z" stroke="#152C5B" stroke-width="3"/>
<path d="M20 39V34" stroke="#152C5B" stroke-width="3" stroke-linecap="round"/>
<path d="M28 39V34" stroke="#152C5B" stroke-width="3" stroke-linecap="round"/>
<path d="M33 40H15" stroke="#152C5B" stroke-width="3" stroke-linecap="round"/>
<path d="M29.25 20.933C29.5833 20.7406 29.5833 20.2594 29.25 20.067L21 15.3038C20.6667 15.1114 20.25 15.352 20.25 15.7369V25.2631C20.25 25.648 20.6667 25.8886 21 25.6962L29.25 20.933Z" stroke="#FF498B" stroke-width="3"/>
</g>
<defs>
<clipPath id="clip0_42_109">
<rect width="48" height="48" fill="white"/>
</clipPath>
</defs>
</svg>
