<svg width="48" height="48" viewBox="0 0 48 48" fill="none" xmlns="http://www.w3.org/2000/svg">
<g clip-path="url(#clip0_38_42)">
<rect width="48" height="48" fill="white"/>
<path d="M40 16L40 5.07037C40 4.40166 39.6658 3.7772 39.1094 3.40627L38.1094 2.7396C37.4376 2.29173 36.5624 2.29173 35.8906 2.7396L34 4" stroke="#FF498B" stroke-width="3" stroke-linecap="round"/>
<path d="M1.5 20C1.5 18.6193 2.61929 17.5 4 17.5H44C45.3807 17.5 46.5 18.6193 46.5 20V22C46.5 23.3807 45.3807 24.5 44 24.5H4C2.61929 24.5 1.5 23.3807 1.5 22V20Z" stroke="#152C5B" stroke-width="3"/>
<path d="M5.5 24.5H42.5V34C42.5 35.933 40.933 37.5 39 37.5H9C7.067 37.5 5.5 35.933 5.5 34V24.5Z" stroke="#152C5B" stroke-width="3"/>
<path d="M10 39L10 42" stroke="#152C5B" stroke-width="3" stroke-linecap="round"/>
<path d="M37 39L37 42" stroke="#152C5B" stroke-width="3" stroke-linecap="round"/>
</g>
<defs>
<clipPath id="clip0_38_42">
<rect width="48" height="48" fill="white"/>
</clipPath>
</defs>
</svg>
