<svg width="48" height="48" viewBox="0 0 48 48" fill="none" xmlns="http://www.w3.org/2000/svg">
<g clip-path="url(#clip0_18_52)">
<rect width="48" height="48" fill="white"/>
<path d="M28.5 41.5C28.5 41.8961 28.3211 42.395 27.7478 42.9824C27.1678 43.5766 26.2552 44.1803 25.0102 44.7199C22.525 45.7968 18.987 46.5 15 46.5C11.013 46.5 7.47501 45.7968 4.98981 44.7199C3.74478 44.1803 2.83219 43.5766 2.2522 42.9824C1.67892 42.395 1.5 41.8961 1.5 41.5C1.5 41.1039 1.67892 40.605 2.2522 40.0176C2.83219 39.4234 3.74478 38.8197 4.98981 38.2801C7.47501 37.2032 11.013 36.5 15 36.5C18.987 36.5 22.525 37.2032 25.0102 38.2801C26.2552 38.8197 27.1678 39.4234 27.7478 40.0176C28.3211 40.605 28.5 41.1039 28.5 41.5Z" stroke="#152C5B" stroke-width="3"/>
<path d="M27.5 12.2553C27.5 15.3667 26.0075 22.097 23.5146 28.0897C22.2749 31.0695 20.8315 33.7577 19.2828 35.6738C17.6936 37.6401 16.2374 38.5 15 38.5C13.7626 38.5 12.3064 37.6401 10.7172 35.6738C9.16845 33.7577 7.72508 31.0695 6.48545 28.0897C3.99246 22.097 2.5 15.3667 2.5 12.2553C2.5 6.49663 7.90268 1.5 15 1.5C22.0973 1.5 27.5 6.49663 27.5 12.2553Z" fill="white" stroke="#152C5B" stroke-width="3"/>
<circle cx="15" cy="15" r="4.5" stroke="#FF498B" stroke-width="3"/>
</g>
<defs>
<clipPath id="clip0_18_52">
<rect width="48" height="48" fill="white"/>
</clipPath>
</defs>
</svg>
