<svg width="48" height="48" viewBox="0 0 48 48" fill="none" xmlns="http://www.w3.org/2000/svg">
<g clip-path="url(#clip0_40_53)">
<rect width="48" height="48" fill="white"/>
<path d="M5.319 26.9603L5.38654 26.8792L5.44206 26.7895L8.30935 22.1578C8.94735 21.1271 10.0732 20.5 11.2853 20.5H37.3967C38.5388 20.5 39.6091 21.0572 40.264 21.9929L43.0315 25.9464C43.2393 26.2432 43.4716 26.522 43.7261 26.7797C44.7226 27.7892 44.0075 29.5 42.589 29.5H6.50854C5.19572 29.5 4.47855 27.9688 5.319 26.9603Z" stroke="#152C5B" stroke-width="3"/>
<mask id="path-2-inside-1_40_53" fill="white">
<path d="M7 28C6.44772 28 6 28.4477 6 29L6 43C6 45.2091 7.79086 47 10 47C12.2091 47 14 45.2091 14 43L14 29C14 28.4477 13.5523 28 13 28H7Z"/>
</mask>
<path d="M7 28C6.44772 28 6 28.4477 6 29L6 43C6 45.2091 7.79086 47 10 47C12.2091 47 14 45.2091 14 43L14 29C14 28.4477 13.5523 28 13 28H7Z" stroke="#152C5B" stroke-width="6" mask="url(#path-2-inside-1_40_53)"/>
<mask id="path-3-inside-2_40_53" fill="white">
<path d="M39 47C41.2091 47 43 45.2091 43 43V29C43 28.4477 42.5523 28 42 28H36C35.4477 28 35 28.4477 35 29V43C35 45.2091 36.7909 47 39 47Z"/>
</mask>
<path d="M39 47C41.2091 47 43 45.2091 43 43V29C43 28.4477 42.5523 28 42 28H36C35.4477 28 35 28.4477 35 29V43C35 45.2091 36.7909 47 39 47Z" stroke="#152C5B" stroke-width="6" mask="url(#path-3-inside-2_40_53)"/>
<path d="M18 15L18 19" stroke="#152C5B" stroke-width="3" stroke-linecap="round"/>
<path d="M32 15L32 19" stroke="#152C5B" stroke-width="3" stroke-linecap="round"/>
<mask id="path-6-inside-3_40_53" fill="white">
<path d="M15 5C14.4477 5 14 5.44772 14 6V11C14 13.2091 15.7909 15 18 15C20.2091 15 22 13.2091 22 11V6C22 5.44772 21.5523 5 21 5L15 5Z"/>
</mask>
<path d="M15 5C14.4477 5 14 5.44772 14 6V11C14 13.2091 15.7909 15 18 15C20.2091 15 22 13.2091 22 11V6C22 5.44772 21.5523 5 21 5L15 5Z" stroke="#FF498B" stroke-width="6" mask="url(#path-6-inside-3_40_53)"/>
<mask id="path-7-inside-4_40_53" fill="white">
<path d="M29 5C28.4477 5 28 5.44772 28 6V11C28 13.2091 29.7909 15 32 15C34.2091 15 36 13.2091 36 11V6C36 5.44772 35.5523 5 35 5L29 5Z"/>
</mask>
<path d="M29 5C28.4477 5 28 5.44772 28 6V11C28 13.2091 29.7909 15 32 15C34.2091 15 36 13.2091 36 11V6C36 5.44772 35.5523 5 35 5L29 5Z" stroke="#FF498B" stroke-width="6" mask="url(#path-7-inside-4_40_53)"/>
</g>
<defs>
<clipPath id="clip0_40_53">
<rect width="48" height="48" fill="white"/>
</clipPath>
</defs>
</svg>
