<svg width="48" height="48" viewBox="0 0 48 48" fill="none" xmlns="http://www.w3.org/2000/svg">
<g clip-path="url(#clip0_18_67)">
<rect width="48" height="48" fill="white"/>
<mask id="path-1-inside-1_18_67" fill="white">
<path fill-rule="evenodd" clip-rule="evenodd" d="M19.1528 8C18.2738 8 17.4978 8.574 17.2404 9.41457L15.8367 14H8C3.58172 14 0 17.5817 0 22V32C0 36.4183 3.58172 40 8 40H40C44.4183 40 48 36.4183 48 32V22C48 17.5817 44.4183 14 40 14H32.3673L31.136 9.47488C30.8991 8.6042 30.1085 8 29.2062 8H19.1528Z"/>
</mask>
<path d="M17.2404 9.41457L14.3718 8.53643V8.53643L17.2404 9.41457ZM15.8367 14V17H18.0558L18.7053 14.8781L15.8367 14ZM32.3673 14L29.4726 14.7877L30.0746 17H32.3673V14ZM31.136 9.47488L28.2413 10.2626V10.2626L31.136 9.47488ZM20.109 10.2927C19.9804 10.713 19.5924 11 19.1528 11V5C16.9552 5 15.0151 6.43501 14.3718 8.53643L20.109 10.2927ZM18.7053 14.8781L20.109 10.2927L14.3718 8.53643L12.9681 13.1219L18.7053 14.8781ZM8 17H15.8367V11H8V17ZM3 22C3 19.2386 5.23858 17 8 17V11C1.92487 11 -3 15.9249 -3 22H3ZM3 32V22H-3V32H3ZM8 37C5.23858 37 3 34.7614 3 32H-3C-3 38.0751 1.92487 43 8 43V37ZM40 37H8V43H40V37ZM45 32C45 34.7614 42.7614 37 40 37V43C46.0751 43 51 38.0751 51 32H45ZM45 22V32H51V22H45ZM40 17C42.7614 17 45 19.2386 45 22H51C51 15.9249 46.0751 11 40 11V17ZM32.3673 17H40V11H32.3673V17ZM28.2413 10.2626L29.4726 14.7877L35.2621 13.2123L34.0308 8.68719L28.2413 10.2626ZM29.2062 11C28.755 11 28.3597 10.6979 28.2413 10.2626L34.0308 8.68719C33.4385 6.51051 31.462 5 29.2062 5V11ZM19.1528 11H29.2062V5H19.1528V11Z" fill="#152C5B" mask="url(#path-1-inside-1_18_67)"/>
<circle cx="24" cy="27" r="6.5" stroke="#FF498B" stroke-width="3"/>
<path d="M41 20H34" stroke="#152C5B" stroke-width="3" stroke-linecap="round"/>
</g>
<defs>
<clipPath id="clip0_18_67">
<rect width="48" height="48" fill="white"/>
</clipPath>
</defs>
</svg>
